<svg xmlns="http://www.w3.org/2000/svg" data-name="Layer 1" viewBox="0 0 64 64"><path fill="#f9c74f" d="M44,14a12,12,0,1,0-21,7.919V26l2,4H39l2-4V21.919A11.94,11.94,0,0,0,44,14Z"/><path fill="#33415c" d="M26,30H38a0,0,0,0,1,0,0v6a2,2,0,0,1-2,2H28a2,2,0,0,1-2-2V30A0,0,0,0,1,26,30Z"/><rect width="2" height="8" x="31" y="22" fill="#33415c"/><path fill="#33415c" d="M37 30H35V24a1 1 0 0 1 .409-.807L37 22.026V14h2v8.533a1 1 0 0 1-.409.807L37 24.507zM29 30H27V24.507L25.409 23.34A1 1 0 0 1 25 22.533V14h2v8.026l1.591 1.167A1 1 0 0 1 29 24z"/><rect width="12" height="8" x="9" y="54" fill="#33415c"/><path fill="#fec3a6" d="M20,51h0a10.142,10.142,0,0,0-3.844-8h0l-1.488-3.1a1.564,1.564,0,0,0-1.4-.9h0a1.615,1.615,0,0,0-1.538,1.952L12.313,44l1.921,4h0a16.99,16.99,0,0,1-8-11.953l-.377-2.359A1.966,1.966,0,0,0,3.942,32h0a1.994,1.994,0,0,0-1.927,2.271l.55,4.581A24.151,24.151,0,0,0,10.391,54H20Z"/><rect width="12" height="8" x="43" y="54" fill="#33415c" transform="rotate(180 49 58)"/><path fill="#fec3a6" d="M44,51h0a10.142,10.142,0,0,1,3.844-8h0l1.488-3.1a1.564,1.564,0,0,1,1.4-.9h0a1.615,1.615,0,0,1,1.538,1.952L51.687,44l-1.921,4h0a16.99,16.99,0,0,0,8-11.953l.377-2.359A1.966,1.966,0,0,1,60.058,32h0a1.994,1.994,0,0,1,1.927,2.271l-.55,4.581A24.151,24.151,0,0,1,53.609,54H44Z"/><circle cx="32" cy="21" r="2" fill="#7ccdf4"/><circle cx="38" cy="13" r="2" fill="#7ccdf4"/><circle cx="26" cy="13" r="2" fill="#7ccdf4"/></svg>